<svg width="32" height="43" viewBox="0 0 32 43" fill="none" xmlns="http://www.w3.org/2000/svg" class="w-7 mb-8 animate-bounce"><path d="M21.8344 2.75766C21.2497 2.55757 20.9484 1.94839 21.1603 1.39701C21.3714 0.844885 22.0172 0.560304 22.6011 0.760402C27.8988 2.57387 31.4992 7.33991 31.4992 12.749V29.7484C31.4992 36.7895 25.4551 42.4974 17.9994 42.4974H13.4998C6.04406 42.4974 0 36.7895 0 29.7484V12.749C0 5.70793 6.04406 0 13.4998 0H17.9994C18.6209 0 19.1247 0.475783 19.1247 1.06274C19.1247 1.64894 18.6209 2.12474 17.9994 2.12474H13.4998C7.28618 2.12474 2.2498 6.88179 2.2498 12.7491V29.7484C2.2498 35.6157 7.28618 40.3728 13.4998 40.3728H17.9994C24.213 40.3728 29.2494 35.6157 29.2494 29.7484V12.7491C29.2494 8.24095 26.2485 4.26953 21.8344 2.75765L21.8344 2.75766Z" fill="white"></path><path d="M12.1272 26.9585C11.7388 26.5005 11.0309 26.4264 10.546 26.7925C10.061 27.1593 9.98253 27.8278 10.3702 28.2858L14.8706 33.598C15.3202 34.1301 16.1772 34.1301 16.6268 33.598L21.1272 28.2858C21.5149 27.8278 21.4364 27.1593 20.9515 26.7925C20.4665 26.4264 19.7587 26.5005 19.3702 26.9585L15.7487 31.2338L12.1272 26.9585Z" fill="#EFDF00"></path><path d="M14.6244 32.7696C14.6244 33.3566 15.1282 33.8324 15.7497 33.8324C16.3712 33.8324 16.875 33.3566 16.875 32.7696V21.2479C16.875 20.6609 16.3712 20.1852 15.7497 20.1852C15.1282 20.1852 14.6244 20.6609 14.6244 21.2479V32.7696Z" fill="#EFDF00"></path></svg>